# xmcd CD database file
# Copyright (C) 1993-1998 Ti Kan
#
# Track frame offsets:
#  150
#  11558
#  31855
#  47808
#  67613
#  83828
#  100925
#  114950
#  128540
#  142533
#  155308
#  171620
#
# Disc length: 2485 seconds
#
# Revision: 1
# Processed by: cddbd v1.4b41PL1 Copyright (c) Steve Scherf et al.
# Submitted via: KiC 2.1 - (C) 1996-1998 Alwin Hoogerdijk
#
DISCID=8509b30c
DTITLE=Chubby Wise - An American Original
DYEAR=1900
DGENRE=
TTITLE0=Cotton Eyed Joe
TTITLE1=Green Valley Waltz
TTITLE2=Bonaparte's Retreat
TTITLE3=I Can't Stop Loving You
TTITLE4=It Is No Secret (What God Can Do)
TTITLE5=Under the Double Eagle
TTITLE6=Little Liza Jane
TTITLE7=The Sidewalk Waltz
TTITLE8=I'm So Lonesome I Could Cry
TTITLE9=Whispering Hope
TTITLE10=Stones Rag
TTITLE11=Eighth of January
EXTD=
EXTT0=
EXTT1=
EXTT2=
EXTT3=
EXTT4=
EXTT5=
EXTT6=
EXTT7=
EXTT8=
EXTT9=
EXTT10=
EXTT11=
PLAYORDER=
